<?xml version="1.0" encoding="UTF-8"?>
<svg width="335px" height="175px" viewBox="0 0 335 175" version="1.1" xmlns="http://www.w3.org/2000/svg" xmlns:xlink="http://www.w3.org/1999/xlink">
    <title>底纹1</title>
    <defs>
        <rect id="path-1" x="0" y="0" width="335" height="175"></rect>
    </defs>
    <g id="页面-2" stroke="none" stroke-width="1" fill="none" fill-rule="evenodd">
        <g id="底纹1">
            <mask id="mask-2" fill="white">
                <use xlink:href="#path-1"></use>
            </mask>
            <g id="蒙版"></g>
            <path d="M304.93576,77.3898203 C306.72857,79.2226846 307.667742,80.8595296 305.986128,83.3189856 C298.017703,94.9796217 305.346327,121.195948 320.583502,128.433584 C323.433522,129.785615 326.180901,131.333665 329.29608,132.958782 C327.222715,135.418238 324.644696,134.721281 322.576463,135.309339 C315.232443,137.39351 308.831016,140.566677 306.21365,148.201378 C303.825518,155.167603 306.477097,161.485456 313.070122,165.116002 C319.562216,168.692935 329.239627,167.686033 333.530054,162.988271 C338.21223,157.863287 336.971975,148.782734 331.244563,146.26464 C328.483499,145.051666 325.679667,144.999729 324.276896,147.879705 C322.694501,151.123239 325.24515,151.872133 327.949761,152.637781 C331.273645,153.577668 331.762904,156.640261 329.388457,159.68945 C326.692399,163.149107 321.295152,164.016953 316.705353,161.725035 C312.089893,159.421389 309.624779,153.984785 311.104532,149.365766 C313.557671,141.712636 327.619597,135.770068 335.001253,139.365431 C336.036224,139.871395 336.920654,140.938611 337.536505,141.943838 C342.11604,149.417703 349.100814,153.279451 357.717593,154.219338 C362.598211,154.753784 363.667396,156.824552 362.649532,161.19394 C359.843989,173.238238 351.340116,179.685095 338.243023,179.271277 C336.741031,179.222691 335.24075,179.083634 334.346056,180.385404 C331.451557,184.602332 326.569229,185.76672 322.376312,188 L308.406763,188 C302.643426,185.453424 297.160644,182.551668 294.038622,176.793392 C292.721386,174.364092 290.908048,175.327435 288.976671,175.895389 C278.072691,179.103739 268.751105,172.985256 267.490322,162.028279 C267.078044,158.439618 268.778476,155.688646 270.26165,152.694744 C273.45381,146.256263 271.541251,140.29359 265.309183,136.386607 C260.185647,133.173231 252.985325,134.198563 248.694898,138.814231 C244.717528,143.093148 244.922812,148.182949 247.882317,152.357993 C253.229955,159.898872 254.131492,166.963945 248.246695,174.432783 C242.149773,182.174708 233.582604,183.263704 224.567233,182.357324 C219.223017,181.821203 214.159355,179.938078 209.444675,177.25077 C206.047231,175.315708 202.451347,173.719072 199.023111,171.837621 C191.855292,167.905507 184.477058,167.347606 176.789187,170.17397 C175.116126,170.788834 173.396876,171.294799 171.675915,171.760554 C170.481849,172.083902 169.121845,172.502747 168.266497,171.222757 C167.571954,170.182347 168.39822,169.250837 168.892612,168.33943 C173.076976,160.646091 179.011382,155.903094 188.574176,156.544764 C193.562567,156.87984 198.598858,156.720679 203.606067,156.563193 C207.159184,156.450943 210.604527,155.556291 211.429083,151.553811 C212.296406,147.340233 211.557385,143.388015 207.087335,141.315571 C203.705288,139.749092 200.152171,138.527741 196.634979,137.257804 C188.348364,134.267253 185.789162,128.713373 189.379914,120.813962 C190.20447,119.007904 190.117225,117.681004 189.333725,115.935259 C185.387148,107.168002 184.969738,98.2868193 191.911745,90.9570373 C199.36354,83.0877834 209.068322,81.2381652 219.506992,84.7179269 C222.233843,85.6259822 223.963357,85.3545708 226.233451,83.5937477 C233.538126,77.9259415 242.635611,77.6796608 250.249921,82.5315576 C257.214167,86.9696359 261.643161,97.2380322 259.917068,104.939748 C257.999377,113.474128 244.247087,117.91053 237.777232,111.904298 C235.113678,109.431439 233.310603,106.243193 236.430914,102.726573 C237.802893,101.178523 238.95077,99.652253 237.394036,97.6552015 C236.578034,96.6097652 235.41476,96.0552148 234.083838,96.5276716 C231.943757,97.2866182 231.291981,99.0775981 231.096962,101.089728 C230.582042,106.3856 231.201314,111.42849 236.324851,114.457575 C242.642453,118.188643 249.404837,117.915557 255.838767,114.839561 C262.792749,111.513934 265.586316,103.158821 263.131467,94.3513546 C262.664447,92.6826774 262.045174,91.0140002 261.210354,89.4910809 C256.555549,80.9751308 257.087576,78.7401755 265.290366,73.2499594 C277.764766,64.9015472 294.454322,66.6757732 304.93576,77.3898203 Z M389.202897,79.3814218 C390.230869,87.6022052 385.138426,96.5921749 377.285531,100.404736 C368.860222,104.499277 359.686374,103.137767 353.245882,96.8124191 L352.907176,96.4787157 C351.376226,94.9737134 349.870678,93.3786111 350.399059,90.9892947 C351.03752,88.0810695 353.574427,88.1778435 355.881014,87.9676104 C357.784541,87.7940846 359.474683,87.1850759 359.461135,84.939252 C359.44928,82.8252409 357.803169,82.0276898 356.030044,81.5004384 C349.547214,79.5682957 343.179544,85.4314645 344.293886,92.3524731 C345.494598,99.8207553 350.534541,103.968689 357.528818,105.685593 C361.935381,106.76846 364.302935,109.061003 366.302993,112.95699 C371.605433,123.28511 381.565079,126.577094 392.335926,127.386325 C402.610568,128.158848 410.727654,123.568758 415.630422,114.758988 C418.277408,110.000378 422.756793,109.468121 426.961827,107.953107 C435.962935,104.70951 439.874988,98.564362 438.310167,89.9181068 C436.767361,81.4003274 427.283597,77.5610697 420.319805,82.641704 C418.365472,84.0682861 417.022503,85.8335771 417.474675,88.3914137 C417.706689,89.7011996 418.541599,90.5621544 419.894729,90.8608189 C422.375749,91.4080925 423.772911,89.941466 425.253055,88.2996453 C428.635034,84.5504875 431.993302,85.2546017 433.803685,89.9614882 C435.614068,94.6700433 433.510705,99.8124127 428.519874,102.879147 C419.173285,108.620514 406.204238,108.393596 398.442793,102.353564 C390.887958,96.4703731 388.376454,85.7952012 391.922705,74.6361593 C395.201378,64.3230556 403.555558,58.137863 414.883575,57.6556616 C415.943725,57.6089431 417.010648,57.6489875 418.074185,57.6489875 C433.8782,58.4031572 445.756615,65.3191603 452.808471,79.3964384 C454.185311,82.144486 455.844969,83.6912012 458.898403,84.4770728 C472.864939,88.0660529 480.904123,97.7851646 481,110.81962 C481.10904,126.283435 472.468653,140.133795 458.971224,142.93023 C449.362139,144.920771 441.526179,148.289506 433.685138,154.339549 C421.127618,164.028628 406.234721,162.75388 393.390995,153.061465 C390.501834,150.880713 388.413712,150.575375 384.950444,152.217195 C368.838206,159.853998 347.379496,151.900177 340.195545,135.747264 C338.740803,132.475302 336.854212,131.058731 333.296106,130.394661 C318.349017,127.606569 308.152276,115.826839 308,101.677815 C307.852522,87.7190013 318.450628,74.5760927 332.720306,71.5911158 C336.749213,70.7485147 339.194669,69.310253 340.751023,65.3224973 C343.199866,59.0505418 348.842706,56.4810256 355.313681,55.4131747 C371.74769,52.7018345 387.228241,63.6356266 389.202897,79.3814218 Z M273.593967,88 C283.295558,102.318431 276.409692,118.854928 260,126 C271.829736,125.069843 278.698832,120.151158 280.993002,111.814687 C283.67792,102.043876 280.92089,93.1616237 273.593967,88 Z M465.019504,-82.9929955 C467.03196,-80.375591 469.711821,-78.2305879 472.166369,-75.9520438 C474.964007,-73.3530012 478.280548,-71.3932864 482.197925,-71.6303217 C492.24655,-72.2396028 498.780631,-67.3837165 503.435396,-59.3679152 C507.663432,-52.0865897 514.148012,-48.4058647 522.604083,-47.8666927 C526.567546,-47.6163032 530.500285,-48.2823392 534.235021,-49.3840528 C537.653977,-50.3956262 540.209233,-49.5409636 543.285099,-48.0586579 C551.263233,-44.2093373 558.65248,-39.9009693 563,-31.9452615 L563,-23.6022847 C554.362996,-32.6263209 545.59968,-29.5932699 536.67762,-23.9945615 C533.084558,-21.7393871 529.250821,-19.8431043 525.490481,-17.8466657 C516.727165,-13.1927602 508.298405,-14.1709484 500.233218,-19.4775357 C497.27513,-21.4222272 494.501388,-23.6273237 491.579145,-25.622093 C483.887773,-30.8719254 477.247863,-30.2426132 471.435808,-23.223362 C469.011985,-20.2954746 466.98758,-20.5942727 464.148976,-22.1667185 C456.773384,-26.2547437 449.080305,-29.1358918 440.310162,-28.9455958 C426.723096,-28.6501362 415.104106,-18.4025303 414.202854,-5.46741075 C413.45181,5.27262784 423.28707,15.0161164 436.751238,16.9240841 C440.247006,17.4198552 445.809851,16.6035856 444.488696,22.0620758 C443.345062,26.784421 438.422311,24.06853 435.29353,23.4742723 C428.232011,22.1371926 421.592101,19.5665275 415.81077,15.2314513 C396.37239,0.657115453 402.923541,-23.9812074 420.955421,-34.3957397 C434.226707,-42.0609957 447.021762,-41.6620419 459.815111,-33.85156 C462.409627,-32.2707678 464.519377,-31.2441711 467.588415,-32.9718583 C476.95598,-38.2400526 486.106767,-36.7143461 494.989567,-31.5646696 C500.053992,-28.6301051 505.062089,-25.5619996 510.9373,-24.3350912 C512.32161,-24.0429702 513.753714,-23.864359 515.167042,-23.832643 C516.28166,-23.8076041 517.329707,-24.2666514 517.450898,-25.5503147 C517.573796,-26.827301 516.664009,-27.5601075 515.549392,-27.6519169 C506.734868,-28.3747078 500.240046,-33.8799374 492.886644,-37.7108962 C485.40693,-41.6086255 477.324674,-41.4333528 469.534301,-38.4403641 C465.760306,-36.9914438 463.075324,-37.3052653 459.792922,-39.7874594 C452.323449,-45.4312379 443.319458,-45.1224242 434.59028,-44.2243607 C410.795846,-41.777221 397.195125,-24.981096 400.011539,-1.98699725 C401.510213,10.2503703 409.008703,18.0441596 419.921028,23.2806378 C426.446575,26.4105061 433.491025,27.6541071 440.622528,28.1982868 C444.432368,28.4887386 446.545532,29.7306703 448.286589,33.2528154 C453.337358,43.4603591 467.074633,49.8836834 476.804064,47.1110374 C482.650258,45.4434436 486.876586,41.8728899 489.110942,36.3693295 C491.724233,29.9393282 487.907565,23.0369254 481.267655,21.7899859 C477.13862,21.0137786 472.756962,24.6310716 473.07957,28.5471628 C473.15126,29.4201874 473.212709,30.331605 474.136152,30.7789675 C475.156889,31.2714001 475.814052,30.5769867 476.40806,29.9293126 C478.458068,27.6941694 480.58318,24.8881382 483.938981,27.5072119 C487.332333,30.1529939 487.294781,33.7819718 485.534949,37.4560198 C483.309128,42.0999097 479.352493,44.0713093 474.315378,44.0546167 C464.326495,44.0212315 454.902602,37.1355213 450.782102,27.0164486 C446.767432,17.1477653 448.378762,8.24725463 455.954063,0.585337141 C462.010208,-5.53918906 470.181223,-7.07491108 478.546828,-2.86336036 C483.206713,-0.518045747 487.226505,-0.436251857 492.190222,-1.46451791 C507.511516,-4.64112553 518.655982,-0.491337538 525.464877,10.178592 C529.402737,16.3498576 530.694874,23.1604509 529.552946,30.2064103 C528.943576,33.9589137 529.897743,36.1389712 532.917281,38.5577334 C545.377781,48.5466036 547.789655,63.3012199 539.330171,75.2414586 C534.823908,81.6013509 528.032082,84.1319537 520.682094,85.3722162 C517.032703,85.9881743 515.190939,87.4638028 514.137771,91.0093176 C510.46107,103.410273 498.563853,107.022558 486.798068,105.763934 C484.268416,105.493513 483.879239,103.645639 483.522493,101.667562 C481.305207,89.3884631 474.083237,81.7148608 461.387183,79.2526978 C458.673183,78.7285492 457.126716,77.4215162 455.945529,74.932645 C448.832802,59.9476704 436.565184,52.3157996 419.714491,51.5379231 C417.512567,51.436098 415.460852,51.3543041 413.982661,49.424636 C408.199624,41.8812362 400.228318,39.5142212 390.88977,39.8948132 C382.983327,40.2153117 383.084035,40.0133308 382.829704,32.3297129 C382.391027,19.087449 377.845504,7.8599856 365.622266,0.685492925 C362.747816,-1.00046277 361.163797,-3.13378098 361.307178,-6.48733048 C361.365213,-7.85111841 360.986277,-9.24161455 360.723412,-10.6054025 C359.229859,-18.3841684 359.228152,-18.3541216 366.969024,-19.6027304 C373.946904,-20.7278137 378.871362,-24.6989906 381.047682,-31.0355132 C383.217175,-37.3653587 381.721915,-43.4514919 376.957907,-48.4692967 C372.702561,-52.951268 365.574472,-53.6690511 360.885569,-50.1969839 C357.99405,-48.0569887 357.350542,-45.4846543 359.707796,-42.5751288 C360.353011,-41.777221 361.201349,-40.9092042 362.416674,-41.333197 C363.437411,-41.6920886 363.369134,-42.6485763 363.259892,-43.534955 C362.63516,-48.5911529 366.318688,-47.9751948 369.194845,-47.3725908 C377.101288,-45.7166819 380.455382,-34.7379387 375.030797,-28.8287474 C367.358201,-20.4724165 353.614099,-20.9131019 345.775933,-30.1090722 C343.03633,-33.3224036 340.13969,-35.4557218 335.986759,-36.7410543 C327.76795,-39.290019 320.986365,-48.4726352 321,-56.0126965 C321.018797,-66.073345 328.399509,-75.9937754 338.094802,-79.0869199 C344.770558,-81.2185688 351.471917,-81.3471021 358.075982,-79.0718965 C361.404472,-77.926782 363.526171,-78.3274052 365.781009,-81.2970242 C372.467006,-90.0973791 379.298091,-91.5813539 389.623237,-87.0927056 C394.213139,-85.0962669 398.395088,-82.4304538 402.546312,-79.716232 C405.379796,-77.86335 408.349833,-76.3075969 411.635649,-75.3394243 C415.655441,-74.157586 418.920775,-74.4797538 421.020283,-78.6996508 C428.711655,-94.1553576 454.364923,-96.8645716 465.019504,-82.9929955 Z M321.147219,-31.1274799 C323.455164,-27.5374115 325.407124,-26.2627617 329.971915,-27.0596266 C343.335853,-29.3917511 356.325069,-18.4728645 357.222697,-3.95889759 C357.578683,1.79790834 358.828891,5.20755456 364.689878,8.01913447 C373.989789,12.4812438 376.902399,21.5474613 377.823873,31.1198635 C378.055519,33.5355168 377.871565,35.9862523 377.985685,38.4169408 C378.130464,41.5091775 377.205582,43.7510909 373.904625,44.8920945 C372.284805,45.450067 370.673502,46.5209064 369.516975,47.7654858 C366.604365,50.8994869 363.046213,51.7748689 358.912351,51.5643763 C347.852952,50.9947097 339.522208,55.1995503 334.608244,65.1294558 C333.57265,67.2243585 331.961346,68.1648929 329.609116,68.4438792 C322.950993,69.2240383 316.676108,71.0115549 311.729782,75.7960855 C309.707988,77.7506597 308.127344,77.1459111 306.359339,75.2665128 C295.015492,63.2183165 296.38493,44.4777916 309.426947,34.3774873 C318.263566,27.5364774 330.557843,30.3480573 334.327203,40.0758231 C336.732235,46.2786728 333.962701,52.1808189 328.365721,52.6519214 C326.141237,52.839026 323.877578,52.7488148 323.763458,49.7300835 C323.668074,47.1857958 322.267978,46.2435907 319.905528,46.8216101 C317.360827,47.4447351 316.642043,49.3742507 317.079786,51.6896695 C317.641868,54.6532718 319.8391,56.135073 322.656326,56.5794463 C327.910946,57.4097227 332.80447,56.4474708 336.015154,51.9853615 C339.500065,47.1423608 339.266716,41.6795763 336.6624,36.6210713 C331.508274,26.6009546 319.651739,23.3984599 308.650251,28.4235534 C305.500886,29.860249 302.748385,33.9698667 299.426988,32.6016647 C296.367897,31.3453913 296.190756,26.7145538 294.54709,23.6590698 C287.476773,10.5066226 273.186251,6.59246231 261.379112,14.7114631 C256.098943,18.3449666 254.15039,25.1291769 256.718937,30.9511353 C258.975783,36.0714517 264.780563,39.0500892 270.306004,37.7854629 L270.64155,37.7086164 C272.828562,37.1940789 275.201232,36.4189315 274.4058,33.4904113 C273.719378,30.9745234 271.445499,30.7105723 269.164806,31.5057666 C265.112702,32.9174036 261.343343,33.4152354 259.408416,28.5371526 C257.792003,24.4542641 260.493406,18.3884016 264.804408,16.0128421 C271.712914,12.2039281 282.951157,14.3088542 288.350556,20.4231635 C295.133018,28.1044733 296.417292,38.8145379 291.629371,47.7287331 C286.756286,56.7999624 277.325222,61.7665857 266.752961,60.5002889 C249.578785,58.4421389 237.599615,50.0942691 232.900264,33.2331425 C232.418236,31.5007549 231.672199,29.9822011 230.060896,28.9798553 C219.265505,22.2591268 215.928779,12.0836466 216.056525,-0.387205462 C214.782471,-19.6990675 235.259307,-35.5895892 255.914988,-32.0897319 C260.771041,-31.2678083 263.775627,-31.8708864 267.248616,-35.8435168 C281.867871,-52.5559621 308.950029,-50.0935326 321.147219,-31.1274799 Z M505.044328,36 C509.869134,45.4036436 508.222671,53.419227 500.231862,60.0738011 C494.564433,64.7925298 487.691244,65.6818352 480.460204,64.6251511 C477.962305,64.2616517 475.48556,63.7578247 473,63.3182441 C477.033305,66.8264355 481.725901,67.7495548 486.5084,67.9693451 C499.657186,68.5779952 510.660635,60.0552034 511.891075,48.4587289 C512.472802,42.9927131 510.799897,38.5258978 505.044328,36 Z M271.954017,-11.3258146 C265.065176,-10.1300223 263.066385,-9.38757977 260,-6.2962595 C275.732691,-11.22069 289.773062,-9.66517442 301.368407,2.46850405 C303.148291,4.32953799 305.404719,4.28518855 307.741974,3.74971012 C312.758317,2.5999098 317.533862,3.52467777 322.156171,5.44812944 C329.122471,8.34891138 333.49388,13.8679529 338,21 C336.018048,3.2191594 326.842469,-3.87839369 310.059023,-1.3307647 C305.758339,-0.677021095 302.45284,-1.78904226 299.457179,-4.46643442 C291.544526,-11.5344212 282.224132,-13.1080051 271.954017,-11.3258146 Z M365,-58.4989069 C372.574978,-57.9863179 380.368784,-59.1493759 386.18963,-52.6398195 C391.60433,-46.5828338 390.331621,-39.4747161 390.972352,-32 C396.075439,-42.3993935 394.608411,-52.2099584 387.471091,-58.2847874 C381.848067,-63.0700332 373.502812,-63.329572 365,-58.4989069 Z" id="Stroke-1" stroke="#F5EFEC" mask="url(#mask-2)"></path>
        </g>
    </g>
</svg>