<?xml version="1.0" encoding="UTF-8"?>
<svg width="67px" height="27px" viewBox="0 0 67 27" version="1.1" xmlns="http://www.w3.org/2000/svg" xmlns:xlink="http://www.w3.org/1999/xlink">
    <title>2</title>
    <g id="页面-2" stroke="none" stroke-width="1" fill="none" fill-rule="evenodd">
        <g id="2" fill="#9C888A">
            <g id="编组" transform="translate(40.000000, 0.000000)" opacity="0.102">
                <path d="M13.5,0 C20.956,0 27,6.044 27,13.5 C27,20.956 20.956,27 13.5,27 C6.044,27 0,20.956 0,13.5 C0,6.044 6.044,0 13.5,0 Z" id="路径"></path>
            </g>
            <g id="编组" transform="translate(50.000000, 10.000000)">
                <path d="M3.5,0 C5.433,0 7,1.567 7,3.5 C7,5.433 5.433,7 3.5,7 C1.567,7 0,5.433 0,3.5 C0,1.567 1.567,0 3.5,0 Z" id="路径"></path>
            </g>
            <g id="编组" transform="translate(0.000000, 13.000000)">
                <polygon id="路径" points="0 1.001 0 0 53 0 53 1.001"></polygon>
            </g>
        </g>
    </g>
</svg>